<svg width="346.87999267578124px" height="108.88001708984375px" xmlns="http://www.w3.org/2000/svg" viewBox="76.56000366210938 20.559991455078126 346.87999267578124 108.88001708984375" style="background: rgba(0, 0, 0, 0) none repeat scroll 0% 0%;" preserveAspectRatio="xMidYMid"><defs><filter id="editing-extrude-glow"><feFlood flood-color="none" result="flood-1"></feFlood><feMorphology operator="erode" radius="1" in="SourceAlpha" result="erode"></feMorphology><feComposite operator="in" in="flood-1" in2="erode" result="comp1"></feComposite><feConvolveMatrix order="0,0" divisor="1" in="comp1" result="convolve" kernelMatrix=""></feConvolveMatrix><feOffset dx="0" dy="0" in="convolve" result="extrude"></feOffset><feComposite operator="in" in="flood-1" in2="extrude" result="comp-extrude"></feComposite><feFlood flood-color="none" result="flood-2"></feFlood><feComposite operator="in" in="flood-2" in2="SourceAlpha" result="comp2"></feComposite><feMorphology operator="dilate" radius="1" in="comp2" result="dilate"></feMorphology><feOffset dx="0" dy="0" in="dilate" result="offset"></feOffset><feGaussianBlur in="offset" stdDeviation="5.8" result="blur"></feGaussianBlur><feComponentTransfer in="blur" result="shadow"><feFuncA type="linear" slope="0.8" intercept="-0.2"></feFuncA></feComponentTransfer><feMerge><feMergeNode in="shadow"></feMergeNode><feMergeNode in="comp-extrude"></feMergeNode><feMergeNode in="SourceGraphic"></feMergeNode></feMerge></filter></defs><g filter="url(#editing-extrude-glow)"><g transform="translate(132.36500704288483, 103.63999938964844)"><path d="M21.89-41.02L35.58 0L30.34 0L29.38-4.10L27.07-11.14L17.86-11.33L9.54-11.14L7.04-4.35L6.02 0L0.90 0L15.94-41.02L21.89-41.02ZM18.30-15.36L25.66-15.49L19.01-35.71L18.56-35.71L11.14-15.49L18.30-15.36ZM48.19-41.02L47.87-12.80L48.13 0L42.94 0L43.26-12.35L42.94-41.02L48.19-41.02ZM94.98 0L95.30-19.90L95.30-19.90Q95.36-22.53 94.08-24L94.08-24L94.08-24Q92.80-25.47 90.30-25.47L90.30-25.47L90.30-25.47Q86.21-25.47 81.79-21.06L81.79-21.06L81.66-12.74L81.92 0L76.74 0L77.12-19.90L77.12-19.90Q77.18-22.53 75.90-24L75.90-24L75.90-24Q74.62-25.47 72.13-25.47L72.13-25.47L72.13-25.47Q68.10-25.47 63.42-20.93L63.42-20.93L63.42-12.86L63.68 0L58.62 0L58.94-12.42L58.69-28.99L63.49-29.44L63.49-25.15L63.87-25.15L63.87-25.15Q67.84-28.67 72-29.70L72-29.70L72-29.70Q75.58-29.70 77.89-28.45L77.89-28.45L77.89-28.45Q80.19-27.20 81.15-24.83L81.15-24.83L81.54-24.83L81.54-24.83Q85.57-28.48 90.18-29.70L90.18-29.70L90.18-29.70Q95.04-29.70 97.54-27.46L97.54-27.46L97.54-27.46Q100.03-25.22 99.97-21.06L99.97-21.06L99.84-12.74L100.10 0L94.98 0ZM153.02-41.02L152.77-12.80L152.90 0L147.84 0L148.10-12.35L148.03-18.50L136.64-18.56L126.21-18.50L126.14-12.80L126.34 0L121.28 0L121.47-12.35L121.28-41.02L126.40-41.02L126.21-22.85L137.09-22.78L148.03-22.85L147.84-41.02L153.02-41.02ZM164.22 0L164.48-12.42L164.29-28.99L169.22-29.44L169.09-12.86L169.22 0L164.22 0ZM166.85-42.43L166.85-42.43Q168.13-42.43 168.90-41.66L168.90-41.66L168.90-41.66Q169.66-40.90 169.66-39.55L169.66-39.55L169.66-39.55Q169.66-38.14 168.86-37.31L168.86-37.31L168.86-37.31Q168.06-36.48 166.66-36.48L166.66-36.48L166.66-36.48Q165.31-36.48 164.58-37.25L164.58-37.25L164.58-37.25Q163.84-38.02 163.84-39.42L163.84-39.42L163.84-39.42Q163.84-40.77 164.64-41.60L164.64-41.60L164.64-41.60Q165.44-42.43 166.85-42.43L166.85-42.43ZM205.57-26.82L205.57-26.82Q203.58-26.24 199.68-25.47L199.68-25.47L199.55-25.22L199.55-25.22Q200.96-22.98 200.96-19.78L200.96-19.78L200.96-19.78Q200.96-15.10 197.86-12.35L197.86-12.35L197.86-12.35Q194.75-9.60 189.44-9.60L189.44-9.60L189.44-9.60Q187.33-9.60 185.47-10.11L185.47-10.11L185.47-10.11Q184.38-9.28 184.00-8.77L184.00-8.77L184.00-8.77Q183.62-8.26 183.62-7.62L183.62-7.62L183.62-7.62Q183.62-6.27 185.28-5.73L185.28-5.73L185.28-5.73Q186.94-5.18 190.72-4.61L190.72-4.61L190.72-4.61Q194.43-4.10 196.80-3.46L196.80-3.46L196.80-3.46Q199.17-2.82 200.90-1.38L200.90-1.38L200.90-1.38Q202.62 0.06 202.62 2.62L202.62 2.62L202.62 2.62Q202.62 5.31 200.80 7.55L200.80 7.55L200.80 7.55Q198.98 9.79 195.81 11.07L195.81 11.07L195.81 11.07Q192.64 12.35 188.86 12.35L188.86 12.35L188.86 12.35Q183.74 12.35 180.90 10.02L180.90 10.02L180.90 10.02Q178.05 7.68 178.05 3.97L178.05 3.97L178.05 3.97Q179.58 0.90 183.68-1.60L183.68-1.60L183.68-1.92L183.68-1.92Q181.38-2.62 180.13-3.81L180.13-3.81L180.13-3.81Q178.88-4.99 178.88-7.04L178.88-7.04L178.88-7.04Q180.22-9.28 182.78-10.94L182.78-10.94L182.78-11.20L182.78-11.20Q180.74-12.48 179.68-14.56L179.68-14.56L179.68-14.56Q178.62-16.64 178.62-19.39L178.62-19.39L178.62-19.39Q178.62-24.19 181.73-26.91L181.73-26.91L181.73-26.91Q184.83-29.63 190.02-29.63L190.02-29.63L190.02-29.63Q193.41-29.63 195.78-28.48L195.78-28.48L195.78-28.48Q200.19-29.31 205.06-30.66L205.06-30.66L205.57-30.27L205.57-26.82ZM189.70-13.06L189.70-13.06Q192.90-13.06 194.66-14.85L194.66-14.85L194.66-14.85Q196.42-16.64 196.42-19.84L196.42-19.84L196.42-19.84Q196.42-22.91 194.75-24.58L194.75-24.58L194.75-24.58Q193.09-26.24 189.95-26.24L189.95-26.24L189.95-26.24Q186.75-26.24 184.96-24.51L184.96-24.51L184.96-24.51Q183.17-22.78 183.17-19.58L183.17-19.58L183.17-19.58Q183.17-16.51 184.86-14.78L184.86-14.78L184.86-14.78Q186.56-13.06 189.70-13.06L189.70-13.06ZM198.14 3.58L198.14 3.58Q198.14 1.47 196.00 0.64L196.00 0.64L196.00 0.64Q193.86-0.19 189.50-0.83L189.50-0.83L187.46-1.15L187.46-1.15Q185.02 0.32 183.78 1.66L183.78 1.66L183.78 1.66Q182.53 3.01 182.53 4.48L182.53 4.48L182.53 4.48Q182.53 6.34 184.35 7.55L184.35 7.55L184.35 7.55Q186.18 8.77 189.44 8.77L189.44 8.77L189.44 8.77Q193.15 8.77 195.65 7.26L195.65 7.26L195.65 7.26Q198.14 5.76 198.14 3.58L198.14 3.58ZM229.25 0L229.57-19.90L229.57-19.90Q229.63-22.53 228.35-24L228.35-24L228.35-24Q227.07-25.47 224.58-25.47L224.58-25.47L224.58-25.47Q220.35-25.47 215.94-20.93L215.94-20.93L215.81-12.86L216.13 0L211.07 0L211.46-12.48L211.14-44.48L216.19-44.93L215.94-25.15L216.32-25.15L216.32-25.15Q220.29-28.67 224.45-29.70L224.45-29.70L224.45-29.70Q229.31-29.70 231.81-27.46L231.81-27.46L231.81-27.46Q234.30-25.22 234.24-21.06L234.24-21.06L234.11-12.74L234.37 0L229.25 0Z" fill="#000000"></path></g></g><style>text {
  font-size: 64px;
  font-family: Arial Black;
  dominant-baseline: central;
  text-anchor: middle;
}</style></svg>